<?xml version="1.0" encoding="UTF-8" standalone="no"?>
<svg width="520px" height="154px" viewBox="0 0 520 154" version="1.1" xmlns="http://www.w3.org/2000/svg" xmlns:xlink="http://www.w3.org/1999/xlink">
    <!-- Generator: Sketch 3.6.1 (26313) - http://www.bohemiancoding.com/sketch -->
    <title>logo</title>
    <desc>Created with Sketch.</desc>
    <defs></defs>
    <g id="Page-1" stroke="none" stroke-width="1" fill="none" fill-rule="evenodd">
        <g id="Artboard-1" transform="translate(-15.000000, -88.000000)">
            <g id="logo" transform="translate(22.000000, 95.000000)">
                <rect id="Rectangle-1-Copy" stroke="#FFFFFF" stroke-width="7" x="0" y="0" width="506" height="140"></rect>
                <rect id="Rectangle-3" fill="#FFFFFF" x="10" y="11" width="485" height="118"></rect>
                <path d="M29.81,46.642 L48.458,46.642 C52.2566857,46.642 55.7716505,47.1353284 59.003,48.122 C62.2343495,49.1086716 65.0216549,50.6133232 67.365,52.636 C69.708345,54.6586768 71.5336601,57.2486509 72.841,60.406 C74.1483399,63.5633491 74.802,67.2879785 74.802,71.58 C74.802,75.6746871 74.1360067,79.2389848 72.804,82.273 C71.4719933,85.3070152 69.634345,87.8476564 67.291,89.895 C64.9476549,91.9423436 62.1603495,93.4716616 58.929,94.483 C55.6976505,95.4943384 52.1826857,96 48.384,96 L29.81,96 L29.81,46.642 Z M47.792,86.084 C52.725358,86.084 56.5239867,84.789013 59.188,82.199 C61.8520133,79.608987 63.184,76.0446894 63.184,71.506 C63.184,69.2366553 62.8756698,67.1770092 62.259,65.327 C61.6423303,63.4769907 60.7050063,61.8983399 59.447,60.591 C58.1889937,59.2836601 56.5980096,58.2723369 54.674,57.557 C52.7499904,56.8416631 50.4560133,56.484 47.792,56.484 L40.984,56.484 L40.984,86.084 L47.792,86.084 Z M102.005222,92.744 C100.821216,94.1253402 99.3288979,95.1859963 97.5282222,95.926 C95.7275466,96.6660037 93.7172333,97.036 91.4972222,97.036 C90.2638827,97.036 88.9688957,96.8633351 87.6122222,96.518 C86.2555488,96.1726649 84.9975614,95.5930041 83.8382222,94.779 C82.6788831,93.9649959 81.7168927,92.8673402 80.9522222,91.486 C80.1875517,90.1046598 79.8052222,88.3780104 79.8052222,86.306 C79.8052222,84.2833232 80.2122182,82.4826746 81.0262222,80.904 C81.8402263,79.3253254 82.9625484,78.005672 84.3932222,76.945 C85.823896,75.884328 87.5135458,75.0826694 89.4622222,74.54 C91.4108986,73.9973306 93.5198775,73.726 95.7892222,73.726 C97.0225617,73.726 98.2682159,73.7506664 99.5262222,73.8 C100.784229,73.8493336 101.610554,73.9233328 102.005222,74.022 L102.005222,73.282 C102.005222,72.3939956 101.820224,71.6416698 101.450222,71.025 C101.08022,70.4083303 100.586892,69.8903354 99.9702222,69.471 C99.3535525,69.0516646 98.6505595,68.7556675 97.8612222,68.583 C97.0718849,68.4103325 96.2332267,68.324 95.3452222,68.324 C92.9772104,68.324 91.01623,68.619997 89.4622222,69.212 C87.9082145,69.804003 86.588561,70.4699963 85.5032222,71.21 L81.1372222,64.698 C81.8772259,64.1553306 82.7158842,63.6126694 83.6532222,63.07 C84.5905602,62.5273306 85.7005491,62.0340022 86.9832222,61.59 C88.2658953,61.1459978 89.7088809,60.7883347 91.3122222,60.517 C92.9155636,60.2456653 94.7532119,60.11 96.8252222,60.11 C102.103915,60.11 106.00121,61.5283192 108.517222,64.365 C111.033235,67.2016809 112.291222,71.0126427 112.291222,75.798 L112.291222,96 L102.301222,96 L102.005222,92.744 Z M102.005222,80.682 C101.758554,80.6326664 101.289892,80.5710004 100.599222,80.497 C99.9085521,80.4229996 99.1192267,80.386 98.2312222,80.386 C95.2712074,80.386 93.1745617,80.8053291 91.9412222,81.644 C90.7078827,82.4826709 90.0912222,83.666659 90.0912222,85.196 C90.0912222,88.0573476 91.8178716,89.488 95.2712222,89.488 C96.1098931,89.488 96.9362182,89.3523347 97.7502222,89.081 C98.5642263,88.8096653 99.2795525,88.4273358 99.8962222,87.934 C100.512892,87.4406642 101.018554,86.8240037 101.413222,86.084 C101.807891,85.3439963 102.005222,84.4806716 102.005222,83.494 L102.005222,80.682 Z M119.884444,61.294 L130.096444,61.294 L130.466444,65.66 C131.354449,64.4759941 132.575437,63.3413388 134.129444,62.256 C135.683452,61.1706612 137.693765,60.628 140.160444,60.628 C141.097782,60.628 141.899441,60.6773328 142.565444,60.776 C143.231448,60.8746672 143.885108,61.0473321 144.526444,61.294 L142.824444,70.692 C141.739106,70.3466649 140.456452,70.174 138.976444,70.174 C136.460432,70.174 134.425452,70.9263258 132.871444,72.431 C131.317437,73.9356742 130.540444,76.0693195 130.540444,78.832 L130.540444,96 L119.884444,96 L119.884444,61.294 Z M149.159667,61.294 L159.815667,61.294 L159.815667,96 L149.159667,96 L149.159667,61.294 Z M148.789667,46.642 L160.185667,46.642 L160.185667,56.188 L148.789667,56.188 L148.789667,46.642 Z M187.980889,92.744 C186.796883,94.1253402 185.304565,95.1859963 183.503889,95.926 C181.703213,96.6660037 179.6929,97.036 177.472889,97.036 C176.239549,97.036 174.944562,96.8633351 173.587889,96.518 C172.231215,96.1726649 170.973228,95.5930041 169.813889,94.779 C168.65455,93.9649959 167.692559,92.8673402 166.927889,91.486 C166.163218,90.1046598 165.780889,88.3780104 165.780889,86.306 C165.780889,84.2833232 166.187885,82.4826746 167.001889,80.904 C167.815893,79.3253254 168.938215,78.005672 170.368889,76.945 C171.799563,75.884328 173.489212,75.0826694 175.437889,74.54 C177.386565,73.9973306 179.495544,73.726 181.764889,73.726 C182.998228,73.726 184.243883,73.7506664 185.501889,73.8 C186.759895,73.8493336 187.58622,73.9233328 187.980889,74.022 L187.980889,73.282 C187.980889,72.3939956 187.795891,71.6416698 187.425889,71.025 C187.055887,70.4083303 186.562559,69.8903354 185.945889,69.471 C185.329219,69.0516646 184.626226,68.7556675 183.836889,68.583 C183.047552,68.4103325 182.208893,68.324 181.320889,68.324 C178.952877,68.324 176.991897,68.619997 175.437889,69.212 C173.883881,69.804003 172.564228,70.4699963 171.478889,71.21 L167.112889,64.698 C167.852893,64.1553306 168.691551,63.6126694 169.628889,63.07 C170.566227,62.5273306 171.676216,62.0340022 172.958889,61.59 C174.241562,61.1459978 175.684548,60.7883347 177.287889,60.517 C178.89123,60.2456653 180.728879,60.11 182.800889,60.11 C188.079582,60.11 191.976876,61.5283192 194.492889,64.365 C197.008901,67.2016809 198.266889,71.0126427 198.266889,75.798 L198.266889,96 L188.276889,96 L187.980889,92.744 Z M187.980889,80.682 C187.734221,80.6326664 187.265559,80.5710004 186.574889,80.497 C185.884219,80.4229996 185.094893,80.386 184.206889,80.386 C181.246874,80.386 179.150228,80.8053291 177.916889,81.644 C176.683549,82.4826709 176.066889,83.666659 176.066889,85.196 C176.066889,88.0573476 177.793538,89.488 181.246889,89.488 C182.08556,89.488 182.911885,89.3523347 183.725889,89.081 C184.539893,88.8096653 185.255219,88.4273358 185.871889,87.934 C186.488559,87.4406642 186.99422,86.8240037 187.388889,86.084 C187.783558,85.3439963 187.980889,84.4806716 187.980889,83.494 L187.980889,80.682 Z M205.934111,61.294 L216.146111,61.294 L216.442111,65.068 C217.576783,63.6866598 219.069102,62.5766709 220.919111,61.738 C222.76912,60.8993291 224.705434,60.48 226.728111,60.48 C230.724131,60.48 233.893766,61.6639882 236.237111,64.032 C238.580456,66.4000118 239.752111,69.9026435 239.752111,74.54 L239.752111,96 L229.096111,96 L229.096111,76.02 C229.096111,74.0959904 228.615116,72.5666723 227.653111,71.432 C226.691106,70.2973277 225.346786,69.73 223.620111,69.73 C222.436105,69.73 221.400116,69.9396646 220.512111,70.359 C219.624107,70.7783354 218.884114,71.3333299 218.292111,72.024 C217.700108,72.7146701 217.256113,73.5163288 216.960111,74.429 C216.66411,75.3416712 216.516111,76.3159948 216.516111,77.352 L216.516111,96 L205.934111,96 L205.934111,61.294 Z M263.004556,46.642 L273.586556,46.642 L286.462556,69.804 L299.042556,46.642 L309.698556,46.642 L311.992556,96 L300.818556,96 L299.412556,63.736 L289.200556,82.976 L283.428556,82.976 L272.624556,63.958 L271.366556,96 L260.710556,96 L263.004556,46.642 Z M336.901778,87.934 C338.233784,87.934 339.417773,87.6750026 340.453778,87.157 C341.489783,86.6389974 342.365441,85.9360044 343.080778,85.048 C343.796115,84.1599956 344.326443,83.1610055 344.671778,82.051 C345.017113,80.9409945 345.189778,79.7940059 345.189778,78.61 C345.189778,77.4259941 345.017113,76.2790055 344.671778,75.169 C344.326443,74.0589945 343.796115,73.0723377 343.080778,72.209 C342.365441,71.3456623 341.489783,70.6550026 340.453778,70.137 C339.417773,69.6189974 338.233784,69.36 336.901778,69.36 C335.569771,69.36 334.37345,69.6189974 333.312778,70.137 C332.252106,70.6550026 331.376448,71.3456623 330.685778,72.209 C329.995108,73.0723377 329.46478,74.0589945 329.094778,75.169 C328.724776,76.2790055 328.539778,77.4259941 328.539778,78.61 C328.539778,79.7940059 328.724776,80.9409945 329.094778,82.051 C329.46478,83.1610055 329.995108,84.1599956 330.685778,85.048 C331.376448,85.9360044 332.252106,86.6389974 333.312778,87.157 C334.37345,87.6750026 335.569771,87.934 336.901778,87.934 L336.901778,87.934 Z M318.253778,78.61 C318.253778,76.0446538 318.710107,73.6396779 319.622778,71.395 C320.535449,69.1503221 321.80577,67.1893417 323.433778,65.512 C325.061786,63.8346583 327.022766,62.5150048 329.316778,61.553 C331.610789,60.5909952 334.139097,60.11 336.901778,60.11 C339.664458,60.11 342.180433,60.5909952 344.449778,61.553 C346.719122,62.5150048 348.66777,63.8346583 350.295778,65.512 C351.923786,67.1893417 353.194107,69.1503221 354.106778,71.395 C355.019449,73.6396779 355.475778,76.0446538 355.475778,78.61 C355.475778,81.1753462 355.019449,83.5803221 354.106778,85.825 C353.194107,88.0696779 351.923786,90.0306583 350.295778,91.708 C348.66777,93.3853417 346.719122,94.7173284 344.449778,95.704 C342.180433,96.6906716 339.664458,97.184 336.901778,97.184 C334.139097,97.184 331.610789,96.6906716 329.316778,95.704 C327.022766,94.7173284 325.061786,93.3853417 323.433778,91.708 C321.80577,90.0306583 320.535449,88.0696779 319.622778,85.825 C318.710107,83.5803221 318.253778,81.1753462 318.253778,78.61 L318.253778,78.61 Z M378.831,87.934 C380.163007,87.934 381.346995,87.6750026 382.383,87.157 C383.419005,86.6389974 384.294663,85.9360044 385.01,85.048 C385.725337,84.1599956 386.255665,83.1610055 386.601,82.051 C386.946335,80.9409945 387.119,79.7940059 387.119,78.61 C387.119,77.4259941 386.946335,76.2790055 386.601,75.169 C386.255665,74.0589945 385.725337,73.0723377 385.01,72.209 C384.294663,71.3456623 383.419005,70.6550026 382.383,70.137 C381.346995,69.6189974 380.163007,69.36 378.831,69.36 C377.498993,69.36 376.302672,69.6189974 375.242,70.137 C374.181328,70.6550026 373.30567,71.3456623 372.615,72.209 C371.92433,73.0723377 371.394002,74.0589945 371.024,75.169 C370.653998,76.2790055 370.469,77.4259941 370.469,78.61 C370.469,79.7940059 370.653998,80.9409945 371.024,82.051 C371.394002,83.1610055 371.92433,84.1599956 372.615,85.048 C373.30567,85.9360044 374.181328,86.6389974 375.242,87.157 C376.302672,87.6750026 377.498993,87.934 378.831,87.934 L378.831,87.934 Z M360.183,78.61 C360.183,76.0446538 360.639329,73.6396779 361.552,71.395 C362.464671,69.1503221 363.734992,67.1893417 365.363,65.512 C366.991008,63.8346583 368.951989,62.5150048 371.246,61.553 C373.540011,60.5909952 376.06832,60.11 378.831,60.11 C381.59368,60.11 384.109655,60.5909952 386.379,61.553 C388.648345,62.5150048 390.596992,63.8346583 392.225,65.512 C393.853008,67.1893417 395.123329,69.1503221 396.036,71.395 C396.948671,73.6396779 397.405,76.0446538 397.405,78.61 C397.405,81.1753462 396.948671,83.5803221 396.036,85.825 C395.123329,88.0696779 393.853008,90.0306583 392.225,91.708 C390.596992,93.3853417 388.648345,94.7173284 386.379,95.704 C384.109655,96.6906716 381.59368,97.184 378.831,97.184 C376.06832,97.184 373.540011,96.6906716 371.246,95.704 C368.951989,94.7173284 366.991008,93.3853417 365.363,91.708 C363.734992,90.0306583 362.464671,88.0696779 361.552,85.825 C360.639329,83.5803221 360.183,81.1753462 360.183,78.61 L360.183,78.61 Z M427.272222,92.522 C426.186883,93.8046731 424.793231,94.8776624 423.091222,95.741 C421.389214,96.6043377 419.4529,97.036 417.282222,97.036 C415.160878,97.036 413.175231,96.6166709 411.325222,95.778 C409.475213,94.9393291 407.871896,93.7430078 406.515222,92.189 C405.158549,90.6349922 404.085559,88.7603443 403.296222,86.565 C402.506885,84.3696557 402.112222,81.8906805 402.112222,79.128 C402.112222,76.0199845 402.667217,73.2943451 403.777222,70.951 C404.887228,68.6076549 406.31788,66.671341 408.069222,65.142 C409.820564,63.612659 411.769211,62.4656705 413.915222,61.701 C416.061233,60.9363295 418.170212,60.554 420.242222,60.554 C421.919564,60.554 423.226884,60.6649989 424.164222,60.887 C425.10156,61.1090011 426.063551,61.3926649 427.050222,61.738 L427.050222,46.642 L437.632222,46.642 L437.632222,96 L427.716222,96 L427.272222,92.522 Z M427.050222,70.84 C426.310219,70.3959978 425.50856,70.0753343 424.645222,69.878 C423.781885,69.6806657 422.708895,69.582 421.426222,69.582 C418.712875,69.582 416.603896,70.4946575 415.099222,72.32 C413.594548,74.1453425 412.842222,76.4886524 412.842222,79.35 C412.842222,81.8660126 413.458883,83.9256587 414.692222,85.529 C415.925562,87.1323414 417.775543,87.934 420.242222,87.934 C421.426228,87.934 422.449885,87.7243354 423.313222,87.305 C424.17656,86.8856646 424.891886,86.3306701 425.459222,85.64 C426.026558,84.9493299 426.433554,84.135338 426.680222,83.198 C426.92689,82.260662 427.050222,81.2986716 427.050222,80.312 L427.050222,70.84 Z M445.817444,101.476 C446.409447,101.920002 447.063108,102.314665 447.778444,102.66 C448.493781,103.005335 449.270774,103.178 450.109444,103.178 C451.244117,103.178 452.193774,102.820337 452.958444,102.105 C453.723115,101.389663 454.450774,100.168675 455.141444,98.442 L456.177444,95.63 L440.341444,61.294 L452.477444,61.294 L461.135444,83.198 L468.979444,61.294 L480.301444,61.294 L466.093444,95.778 C465.304107,97.7020096 464.527115,99.6136572 463.762444,101.513 C462.997774,103.412343 462.06045,105.114326 460.950444,106.619 C459.840439,108.123674 458.483786,109.344662 456.880444,110.282 C455.277103,111.219338 453.26679,111.688 450.849444,111.688 C448.974768,111.688 447.272785,111.441336 445.743444,110.948 C444.214103,110.454664 442.808118,109.739338 441.525444,108.802 L445.817444,101.476 Z" id="Darian-Moody" fill="#000000"></path>
            </g>
        </g>
    </g>
</svg>