<?xml version="1.0" encoding="UTF-8" standalone="no"?>
<svg width="520px" height="154px" viewBox="0 0 520 154" version="1.1" xmlns="http://www.w3.org/2000/svg" xmlns:xlink="http://www.w3.org/1999/xlink" xmlns:sketch="http://www.bohemiancoding.com/sketch/ns">
    <!-- Generator: Sketch 3.4.2 (15855) - http://www.bohemiancoding.com/sketch -->
    <title>logo</title>
    <desc>Created with Sketch.</desc>
    <defs></defs>
    <g id="Page-1" stroke="none" stroke-width="1" fill="none" fill-rule="evenodd" sketch:type="MSPage">
        <g id="Artboard-1" sketch:type="MSArtboardGroup" transform="translate(-15.000000, -88.000000)">
            <g id="logo" sketch:type="MSLayerGroup" transform="translate(22.000000, 95.000000)">
                <rect id="Rectangle-1-Copy" stroke="#FFFFFF" stroke-width="7" sketch:type="MSShapeGroup" x="0" y="0" width="506" height="140"></rect>
                <path d="M10,11 L495,11 L495,129 L10,129 L10,11 Z M28.81,46.642 L47.458,46.642 C51.2566857,46.642 54.7716505,47.1353284 58.003,48.122 C61.2343495,49.1086716 64.0216549,50.6133232 66.365,52.636 C68.708345,54.6586768 70.5336601,57.2486509 71.841,60.406 C73.1483399,63.5633491 73.802,67.2879785 73.802,71.58 C73.802,75.6746871 73.1360067,79.2389848 71.804,82.273 C70.4719933,85.3070152 68.634345,87.8476564 66.291,89.895 C63.9476549,91.9423436 61.1603495,93.4716616 57.929,94.483 C54.6976505,95.4943384 51.1826857,96 47.384,96 L28.81,96 L28.81,46.642 Z M101.108,92.744 C99.9239941,94.1253402 98.4316757,95.1859963 96.631,95.926 C94.8303243,96.6660037 92.8200111,97.036 90.6,97.036 C89.3666605,97.036 88.0716735,96.8633351 86.715,96.518 C85.3583266,96.1726649 84.1003391,95.5930041 82.941,94.779 C81.7816609,93.9649959 80.8196705,92.8673402 80.055,91.486 C79.2903295,90.1046598 78.908,88.3780104 78.908,86.306 C78.908,84.2833232 79.3149959,82.4826746 80.129,80.904 C80.9430041,79.3253254 82.0653262,78.005672 83.496,76.945 C84.9266738,75.884328 86.6163236,75.0826694 88.565,74.54 C90.5136764,73.9973306 92.6226553,73.726 94.892,73.726 C96.1253395,73.726 97.3709937,73.7506664 98.629,73.8 C99.8870063,73.8493336 100.713331,73.9233328 101.108,74.022 L101.108,73.282 C101.108,72.3939956 100.923002,71.6416698 100.553,71.025 C100.182998,70.4083303 99.6896698,69.8903354 99.073,69.471 C98.4563303,69.0516646 97.7533373,68.7556675 96.964,68.583 C96.1746627,68.4103325 95.3360044,68.324 94.448,68.324 C92.0799882,68.324 90.1190078,68.619997 88.565,69.212 C87.0109922,69.804003 85.6913388,70.4699963 84.606,71.21 L80.24,64.698 C80.9800037,64.1553306 81.818662,63.6126694 82.756,63.07 C83.693338,62.5273306 84.8033269,62.0340022 86.086,61.59 C87.3686731,61.1459978 88.8116587,60.7883347 90.415,60.517 C92.0183414,60.2456653 93.8559896,60.11 95.928,60.11 C101.206693,60.11 105.103987,61.5283192 107.62,64.365 C110.136013,67.2016809 111.394,71.0126427 111.394,75.798 L111.394,96 L101.404,96 L101.108,92.744 Z M119.09,61.294 L129.302,61.294 L129.672,65.66 C130.560004,64.4759941 131.780992,63.3413388 133.335,62.256 C134.889008,61.1706612 136.899321,60.628 139.366,60.628 C140.303338,60.628 141.104997,60.6773328 141.771,60.776 C142.437003,60.8746672 143.090663,61.0473321 143.732,61.294 L142.03,70.692 C140.944661,70.3466649 139.662007,70.174 138.182,70.174 C135.665987,70.174 133.631008,70.9263258 132.077,72.431 C130.522992,73.9356742 129.746,76.0693195 129.746,78.832 L129.746,96 L119.09,96 L119.09,61.294 Z M148.468,61.294 L159.124,61.294 L159.124,96 L148.468,96 L148.468,61.294 Z M148.098,46.642 L159.494,46.642 L159.494,56.188 L148.098,56.188 L148.098,46.642 Z M187.392,92.744 C186.207994,94.1253402 184.715676,95.1859963 182.915,95.926 C181.114324,96.6660037 179.104011,97.036 176.884,97.036 C175.650661,97.036 174.355673,96.8633351 172.999,96.518 C171.642327,96.1726649 170.384339,95.5930041 169.225,94.779 C168.065661,93.9649959 167.10367,92.8673402 166.339,91.486 C165.57433,90.1046598 165.192,88.3780104 165.192,86.306 C165.192,84.2833232 165.598996,82.4826746 166.413,80.904 C167.227004,79.3253254 168.349326,78.005672 169.78,76.945 C171.210674,75.884328 172.900324,75.0826694 174.849,74.54 C176.797676,73.9973306 178.906655,73.726 181.176,73.726 C182.40934,73.726 183.654994,73.7506664 184.913,73.8 C186.171006,73.8493336 186.997331,73.9233328 187.392,74.022 L187.392,73.282 C187.392,72.3939956 187.207002,71.6416698 186.837,71.025 C186.466998,70.4083303 185.97367,69.8903354 185.357,69.471 C184.74033,69.0516646 184.037337,68.7556675 183.248,68.583 C182.458663,68.4103325 181.620004,68.324 180.732,68.324 C178.363988,68.324 176.403008,68.619997 174.849,69.212 C173.294992,69.804003 171.975339,70.4699963 170.89,71.21 L166.524,64.698 C167.264004,64.1553306 168.102662,63.6126694 169.04,63.07 C169.977338,62.5273306 171.087327,62.0340022 172.37,61.59 C173.652673,61.1459978 175.095659,60.7883347 176.699,60.517 C178.302341,60.2456653 180.13999,60.11 182.212,60.11 C187.490693,60.11 191.387987,61.5283192 193.904,64.365 C196.420013,67.2016809 197.678,71.0126427 197.678,75.798 L197.678,96 L187.688,96 L187.392,92.744 Z M205.448,61.294 L215.66,61.294 L215.956,65.068 C217.090672,63.6866598 218.582991,62.5766709 220.433,61.738 C222.283009,60.8993291 224.219323,60.48 226.242,60.48 C230.23802,60.48 233.407655,61.6639882 235.751,64.032 C238.094345,66.4000118 239.266,69.9026435 239.266,74.54 L239.266,96 L228.61,96 L228.61,76.02 C228.61,74.0959904 228.129005,72.5666723 227.167,71.432 C226.204995,70.2973277 224.860675,69.73 223.134,69.73 C221.949994,69.73 220.914004,69.9396646 220.026,70.359 C219.137996,70.7783354 218.398003,71.3333299 217.806,72.024 C217.213997,72.7146701 216.770001,73.5163288 216.474,74.429 C216.177999,75.3416712 216.03,76.3159948 216.03,77.352 L216.03,96 L205.448,96 L205.448,61.294 Z M262.724,46.642 L273.306,46.642 L286.182,69.804 L298.762,46.642 L309.418,46.642 L311.712,96 L300.538,96 L299.132,63.736 L288.92,82.976 L283.148,82.976 L272.344,63.958 L271.086,96 L260.43,96 L262.724,46.642 Z M318.076,78.61 C318.076,76.0446538 318.532329,73.6396779 319.445,71.395 C320.357671,69.1503221 321.627992,67.1893417 323.256,65.512 C324.884008,63.8346583 326.844989,62.5150048 329.139,61.553 C331.433011,60.5909952 333.96132,60.11 336.724,60.11 C339.48668,60.11 342.002655,60.5909952 344.272,61.553 C346.541345,62.5150048 348.489992,63.8346583 350.118,65.512 C351.746008,67.1893417 353.016329,69.1503221 353.929,71.395 C354.841671,73.6396779 355.298,76.0446538 355.298,78.61 C355.298,81.1753462 354.841671,83.5803221 353.929,85.825 C353.016329,88.0696779 351.746008,90.0306583 350.118,91.708 C348.489992,93.3853417 346.541345,94.7173284 344.272,95.704 C342.002655,96.6906716 339.48668,97.184 336.724,97.184 C333.96132,97.184 331.433011,96.6906716 329.139,95.704 C326.844989,94.7173284 324.884008,93.3853417 323.256,91.708 C321.627992,90.0306583 320.357671,88.0696779 319.445,85.825 C318.532329,83.5803221 318.076,81.1753462 318.076,78.61 Z M360.108,78.61 C360.108,76.0446538 360.564329,73.6396779 361.477,71.395 C362.389671,69.1503221 363.659992,67.1893417 365.288,65.512 C366.916008,63.8346583 368.876989,62.5150048 371.171,61.553 C373.465011,60.5909952 375.99332,60.11 378.756,60.11 C381.51868,60.11 384.034655,60.5909952 386.304,61.553 C388.573345,62.5150048 390.521992,63.8346583 392.15,65.512 C393.778008,67.1893417 395.048329,69.1503221 395.961,71.395 C396.873671,73.6396779 397.33,76.0446538 397.33,78.61 C397.33,81.1753462 396.873671,83.5803221 395.961,85.825 C395.048329,88.0696779 393.778008,90.0306583 392.15,91.708 C390.521992,93.3853417 388.573345,94.7173284 386.304,95.704 C384.034655,96.6906716 381.51868,97.184 378.756,97.184 C375.99332,97.184 373.465011,96.6906716 371.171,95.704 C368.876989,94.7173284 366.916008,93.3853417 365.288,91.708 C363.659992,90.0306583 362.389671,88.0696779 361.477,85.825 C360.564329,83.5803221 360.108,81.1753462 360.108,78.61 Z M445.948,101.476 C446.540003,101.920002 447.193663,102.314665 447.909,102.66 C448.624337,103.005335 449.401329,103.178 450.24,103.178 C451.374672,103.178 452.32433,102.820337 453.089,102.105 C453.85367,101.389663 454.58133,100.168675 455.272,98.442 L456.308,95.63 L440.472,61.294 L452.608,61.294 L461.266,83.198 L469.11,61.294 L480.432,61.294 L466.224,95.778 C465.434663,97.7020096 464.65767,99.6136572 463.893,101.513 C463.12833,103.412343 462.191006,105.114326 461.081,106.619 C459.970994,108.123674 458.614341,109.344662 457.011,110.282 C455.407659,111.219338 453.397345,111.688 450.98,111.688 C449.105324,111.688 447.403341,111.441336 445.874,110.948 C444.344659,110.454664 442.938673,109.739338 441.656,108.802 L445.948,101.476 Z M427.3,92.522 C426.214661,93.8046731 424.821009,94.8776624 423.119,95.741 C421.416991,96.6043376 419.480678,97.036 417.31,97.036 C415.188656,97.036 413.203009,96.6166709 411.353,95.778 C409.502991,94.9393291 407.899673,93.7430078 406.543,92.189 C405.186327,90.6349922 404.113337,88.7603443 403.324,86.565 C402.534663,84.3696557 402.14,81.8906805 402.14,79.128 C402.14,76.0199845 402.694994,73.2943451 403.805,70.951 C404.915006,68.6076549 406.345658,66.671341 408.097,65.142 C409.848342,63.612659 411.796989,62.4656705 413.943,61.701 C416.089011,60.9363295 418.19799,60.554 420.27,60.554 C421.947342,60.554 423.254662,60.6649989 424.192,60.887 C425.129338,61.1090011 426.091328,61.3926649 427.078,61.738 L427.078,46.642 L437.66,46.642 L437.66,96 L427.744,96 L427.3,92.522 Z" id="Rectangle-1" fill="#FFFFFF" sketch:type="MSShapeGroup"></path>
                <g id="Text-Cutouts" transform="translate(39.000000, 56.000000)" fill="#FFFFFF" sketch:type="MSShapeGroup">
                    <path d="M62.108,24.682 C61.8613321,24.6326664 61.3926701,24.5710004 60.702,24.497 C60.0113299,24.4229996 59.2220044,24.386 58.334,24.386 C55.3739852,24.386 53.2773395,24.8053291 52.044,25.644 C50.8106605,26.4826709 50.194,27.666659 50.194,29.196 C50.194,32.0573476 51.9206494,33.488 55.374,33.488 C56.2126709,33.488 57.0389959,33.3523347 57.853,33.081 C58.6670041,32.8096653 59.3823302,32.4273358 59.999,31.934 C60.6156697,31.4406642 61.1213314,30.8240037 61.516,30.084 C61.9106686,29.3439963 62.108,28.4806716 62.108,27.494 L62.108,24.682 Z" id="Path"></path>
                    <path d="M148.392,24.682 C148.145332,24.6326664 147.67667,24.5710004 146.986,24.497 C146.29533,24.4229996 145.506004,24.386 144.618,24.386 C141.657985,24.386 139.561339,24.8053291 138.328,25.644 C137.09466,26.4826709 136.478,27.666659 136.478,29.196 C136.478,32.0573476 138.204649,33.488 141.658,33.488 C142.496671,33.488 143.322996,33.3523347 144.137,33.081 C144.951004,32.8096653 145.66633,32.4273358 146.283,31.934 C146.89967,31.4406642 147.405331,30.8240037 147.8,30.084 C148.194669,29.3439963 148.392,28.4806716 148.392,27.494 L148.392,24.682 Z" id="Path"></path>
                    <path d="M297.724,31.934 C299.056007,31.934 300.239995,31.6750026 301.276,31.157 C302.312005,30.6389974 303.187663,29.9360044 303.903,29.048 C304.618337,28.1599956 305.148665,27.1610055 305.494,26.051 C305.839335,24.9409945 306.012,23.7940059 306.012,22.61 C306.012,21.4259941 305.839335,20.2790055 305.494,19.169 C305.148665,18.0589945 304.618337,17.0723377 303.903,16.209 C303.187663,15.3456623 302.312005,14.6550026 301.276,14.137 C300.239995,13.6189974 299.056007,13.36 297.724,13.36 C296.391993,13.36 295.195672,13.6189974 294.135,14.137 C293.074328,14.6550026 292.19867,15.3456623 291.508,16.209 C290.81733,17.0723377 290.287002,18.0589945 289.917,19.169 C289.546998,20.2790055 289.362,21.4259941 289.362,22.61 C289.362,23.7940059 289.546998,24.9409945 289.917,26.051 C290.287002,27.1610055 290.81733,28.1599956 291.508,29.048 C292.19867,29.9360044 293.074328,30.6389974 294.135,31.157 C295.195672,31.6750026 296.391993,31.934 297.724,31.934 L297.724,31.934 Z" id="Path"></path>
                    <path d="M339.756,31.934 C341.088007,31.934 342.271995,31.6750026 343.308,31.157 C344.344005,30.6389974 345.219663,29.9360044 345.935,29.048 C346.650337,28.1599956 347.180665,27.1610055 347.526,26.051 C347.871335,24.9409945 348.044,23.7940059 348.044,22.61 C348.044,21.4259941 347.871335,20.2790055 347.526,19.169 C347.180665,18.0589945 346.650337,17.0723377 345.935,16.209 C345.219663,15.3456623 344.344005,14.6550026 343.308,14.137 C342.271995,13.6189974 341.088007,13.36 339.756,13.36 C338.423993,13.36 337.227672,13.6189974 336.167,14.137 C335.106328,14.6550026 334.23067,15.3456623 333.54,16.209 C332.84933,17.0723377 332.319002,18.0589945 331.949,19.169 C331.578998,20.2790055 331.394,21.4259941 331.394,22.61 C331.394,23.7940059 331.578998,24.9409945 331.949,26.051 C332.319002,27.1610055 332.84933,28.1599956 333.54,29.048 C334.23067,29.9360044 335.106328,30.6389974 336.167,31.157 C337.227672,31.6750026 338.423993,31.934 339.756,31.934 L339.756,31.934 Z" id="Path"></path>
                    <path d="M388.078,14.84 C387.337996,14.3959978 386.536338,14.0753343 385.673,13.878 C384.809662,13.6806657 383.736673,13.582 382.454,13.582 C379.740653,13.582 377.631674,14.4946575 376.127,16.32 C374.622326,18.1453425 373.87,20.4886524 373.87,23.35 C373.87,25.8660126 374.48666,27.9256587 375.72,29.529 C376.953339,31.1323413 378.803321,31.934 381.27,31.934 C382.454006,31.934 383.477662,31.7243354 384.341,31.305 C385.204338,30.8856646 385.919664,30.3306701 386.487,29.64 C387.054336,28.9493299 387.461332,28.135338 387.708,27.198 C387.954668,26.260662 388.078,25.2986716 388.078,24.312 L388.078,14.84 Z" id="Path"></path>
                    <path d="M7.792,30.084 C12.725358,30.084 16.5239867,28.789013 19.188,26.199 C21.8520133,23.6089871 23.184,20.0446894 23.184,15.506 C23.184,13.2366553 22.8756698,11.1770093 22.259,9.327 C21.6423303,7.47699075 20.7050063,5.89833987 19.447,4.591 C18.1889937,3.28366013 16.5980096,2.27233691 14.674,1.557 C12.7499904,0.84166309 10.4560133,0.484 7.792,0.484 L0.984,0.484 L0.984,30.084 L7.792,30.084 Z" id="Path"></path>
                </g>
            </g>
        </g>
    </g>
</svg>